HIERARCHY
ROOT Hips
{
 OFFSET 0.000000 0.000000 0.000000
 CHANNELS 6 Xposition Yposition Zposition Yrotation Xrotation Zrotation
 JOINT Chest
 {
  OFFSET 0.000000 103.927959 -11.547555
  CHANNELS 3 Yrotation Xrotation Zrotation
  JOINT Chest2
  {
   OFFSET 0.000000 116.259650 0.000000
   CHANNELS 3 Yrotation Xrotation Zrotation
   JOINT Chest3
   {
    OFFSET 0.000000 106.135078 0.000000
    CHANNELS 3 Yrotation Xrotation Zrotation
    JOINT Chest4
    {
     OFFSET 0.000000 106.016608 0.000000
     CHANNELS 3 Yrotation Xrotation Zrotation
     JOINT Neck
     {
      OFFSET 0.000000 148.478086 0.000000
      CHANNELS 3 Yrotation Xrotation Zrotation
      JOINT Head
      {
       OFFSET 0.000000 98.684725 0.000000
       CHANNELS 3 Yrotation Xrotation Zrotation
       End Site
       {
        OFFSET 0.000000 183.657339 0.000000
       }
      }
     }
     JOINT RightCollar
     {
      OFFSET -32.301251 83.229558 0.000000
      CHANNELS 3 Yrotation Xrotation Zrotation
      JOINT RightShoulder
      {
       OFFSET -148.983121 0.000000 0.000000
       CHANNELS 3 Yrotation Xrotation Zrotation
       JOINT RightElbow
       {
        OFFSET 0.000000 -318.416921 0.000000
        CHANNELS 3 Yrotation Xrotation Zrotation
        JOINT RightWrist
        {
         OFFSET 0.000000 -260.384535 0.000000
         CHANNELS 3 Yrotation Xrotation Zrotation
         End Site
         {
          OFFSET 0.000000 -194.729091 0.000000
         }
        }
       }
      }
     }
     JOINT LeftCollar
     {
      OFFSET 32.301251 83.229558 0.000000
      CHANNELS 3 Yrotation Xrotation Zrotation
      JOINT LeftShoulder
      {
       OFFSET 148.983121 0.000000 0.000000
       CHANNELS 3 Yrotation Xrotation Zrotation
       JOINT LeftElbow
       {
        OFFSET 0.000000 -318.416921 0.000000
        CHANNELS 3 Yrotation Xrotation Zrotation
        JOINT LeftWrist
        {
         OFFSET 0.000000 -260.384535 0.000000
         CHANNELS 3 Yrotation Xrotation Zrotation
         End Site
         {
          OFFSET 0.000000 -194.729091 0.000000
         }
        }
       }
      }
     }
    }
   }
  }
 }
 JOINT RightHip
 {
  OFFSET -85.448433 0.000000 0.000000
  CHANNELS 3 Yrotation Xrotation Zrotation
  JOINT RightKnee
  {
   OFFSET 0.000000 -444.902608 0.000000
   CHANNELS 3 Yrotation Xrotation Zrotation
   JOINT RightAnkle
   {
    OFFSET 0.000000 -434.916856 0.000000
    CHANNELS 3 Yrotation Xrotation Zrotation
    JOINT RightToe
    {
     OFFSET 0.000000 -65.483541 148.093546
     CHANNELS 3 Yrotation Xrotation Zrotation
     End Site
     {
      OFFSET 0.000000 -15.533754 66.277348
     }
    }
   }
  }
 }
 JOINT LeftHip
 {
  OFFSET 85.448433 0.000000 0.000000
  CHANNELS 3 Yrotation Xrotation Zrotation
  JOINT LeftKnee
  {
   OFFSET 0.000000 -444.902608 0.000000
   CHANNELS 3 Yrotation Xrotation Zrotation
   JOINT LeftAnkle
   {
    OFFSET 0.000000 -434.916856 0.000000
    CHANNELS 3 Yrotation Xrotation Zrotation
    JOINT LeftToe
    {
     OFFSET 0.000000 -65.483541 148.093546
     CHANNELS 3 Yrotation Xrotation Zrotation
     End Site
     {
      OFFSET 0.000000 -15.533754 66.277348
     }
    }
   }
  }
 }
}
MOTION
Frames: 6
Frame Time: 0.016667
-2482.457344 954.713612 3532.758368 -152.542398 3.856308 -1.332516 -2.374357 -4.570746 1.864140 -1.118456 -7.866703 0.811544 -1.108705 -2.047369 0.697943 -0.776158 4.299643 0.520893 13.450284 14.447452 -6.014778 27.332939 -6.548552 -16.079618 5.050701 -2.450426 9.273915 26.535731 -16.301274 -21.012890 -11.240965 -53.344325 79.870516 -20.938332 -3.139856 3.924405 5.847688 0.161853 -8.457547 -7.152638 -3.618115 22.913206 -25.587886 -86.002404 -26.187862 -20.291265 -1.307457 -4.335400 -3.914810 -1.157950 -1.840421 0.985630 4.536278 -0.245842 -17.465368 -9.073750 4.174662 0.000000 0.000000 0.000000 4.931569 -5.324882 8.466356 0.691630 4.254878 -0.079260 4.836336 -3.521345 -1.625660 0.000000 -0.000000 0.000000
-2482.294683 954.746845 3533.480666 -152.507260 3.907512 -1.330636 -2.366807 -4.481731 1.871008 -1.115791 -7.827141 0.815125 -1.106143 -2.007802 0.701799 -0.773968 4.329311 0.523903 13.458454 14.358857 -6.113389 27.402224 -6.678729 -16.286800 5.017568 -2.607156 9.201169 26.547401 -16.281384 -21.065682 -11.413936 -53.408884 80.141929 -20.955853 -3.125115 3.843443 5.742095 0.012108 -8.396018 -7.123631 -3.731445 22.948487 -23.726452 -86.011737 -27.974108 -20.259139 -1.308659 -4.422954 -3.921826 -1.207105 -1.880860 1.057321 4.473131 -0.195774 -17.538437 -9.028697 4.164140 0.000000 0.000000 0.000000 4.931231 -5.388656 8.430168 0.714178 4.169666 -0.035124 4.778291 -3.391253 -1.643774 0.000000 0.000000 0.000000
-2482.132023 954.780078 3534.202963 -152.472118 3.958716 -1.328725 -2.359240 -4.392720 1.877936 -1.113121 -7.787581 0.818727 -1.103574 -1.968237 0.705674 -0.771771 4.358978 0.526927 13.466435 14.270381 -6.212177 27.471571 -6.808350 -16.494492 4.984408 -2.763902 9.128558 26.558960 -16.261494 -21.118463 -11.587304 -53.473123 80.413871 -20.973466 -3.110502 3.762478 5.636709 -0.137635 -8.333856 -7.094450 -3.844713 22.983753 -21.857642 -86.016922 -29.767812 -20.227070 -1.309745 -4.510530 -3.928847 -1.256238 -1.921319 1.128901 4.409845 -0.145822 -17.611508 -8.983663 4.153558 0.000000 0.000000 0.000000 4.930909 -5.452406 8.393938 0.736605 4.084400 0.008922 4.720235 -3.261166 -1.661985 0.000000 0.000000 0.000000
-2481.973189 954.830745 3534.899758 -152.441351 4.016028 -1.326426 -2.349636 -4.308907 1.886686 -1.109590 -7.750331 0.823137 -1.100147 -1.930980 0.710444 -0.768857 4.386913 0.530620 13.468545 14.179920 -6.319778 27.533832 -6.940308 -16.717250 4.956672 -2.912120 9.064727 26.567255 -16.240765 -21.172118 -11.743893 -53.523594 80.666152 -20.990990 -3.102995 3.691822 5.537379 -0.282473 -8.274547 -7.073263 -3.947506 23.021306 -20.140602 -86.020028 -31.411672 -20.195956 -1.308836 -4.592758 -3.945104 -1.311849 -1.955696 1.193879 4.341405 -0.101097 -17.666355 -8.934893 4.140304 0.000000 0.000000 0.000000 4.937182 -5.524779 8.357951 0.748232 4.007254 0.046899 4.668739 -3.142423 -1.678477 0.000000 -0.000000 -0.000000
-2481.815794 954.914027 3535.560298 -152.416474 4.083071 -1.323540 -2.337313 -4.232205 1.898299 -1.104925 -7.716242 0.828816 -1.095590 -1.896882 0.716599 -0.764982 4.412476 0.535350 13.464226 14.086693 -6.442085 27.590095 -7.074507 -16.965910 4.937086 -3.047920 9.014046 26.571783 -16.217779 -21.228340 -11.876334 -53.553212 80.891309 -21.010074 -3.107160 3.637488 5.445744 -0.420448 -8.219135 -7.063775 -4.033522 23.061890 -18.662359 -86.024889 -32.818631 -20.165930 -1.304469 -4.668126 -3.975282 -1.378212 -1.979742 1.246777 4.264810 -0.064745 -17.692774 -8.879655 4.122024 0.000000 0.000000 0.000000 4.953400 -5.611859 8.321837 0.741646 3.943907 0.076350 4.628081 -3.042340 -1.692859 -0.000000 -0.000000 0.000000
-2481.662225 955.014744 3536.195335 -152.395970 4.156222 -1.320271 -2.322936 -4.160703 1.911700 -1.099392 -7.684463 0.835286 -1.090167 -1.865093 0.723633 -0.760387 4.436307 0.540738 13.454061 13.991459 -6.573113 27.639278 -7.211093 -17.229511 4.922983 -3.175172 8.972016 26.573014 -16.193962 -21.285414 -11.991379 -53.569235 81.096238 -21.028972 -3.118433 3.593500 5.360163 -0.553553 -8.166755 -7.062313 -4.109093 23.104815 -17.334611 -86.029755 -34.077025 -20.136888 -1.298179 -4.738152 -4.014698 -1.451077 -1.997615 1.293107 4.183168 -0.033547 -17.700996 -8.820663 4.101139 0.000000 0.000000 0.000000 4.976235 -5.707552 8.285899 0.724328 3.888733 0.099787 4.594008 -2.953596 -1.705479 -0.000000 -0.000000 0.000000
